<?xml version="1.0" encoding="utf-8"?>
<!-- Svg Vector Icons : http://www.onlinewebfonts.com/icon -->
<!DOCTYPE svg PUBLIC "-//W3C//DTD SVG 1.1//EN" "http://www.w3.org/Graphics/SVG/1.1/DTD/svg11.dtd">
<svg version="1.1" xmlns="http://www.w3.org/2000/svg" xmlns:xlink="http://www.w3.org/1999/xlink" x="0px" y="0px" viewBox="0 0 1000 1000" enable-background="new 0 0 1000 1000" xml:space="preserve" fill="#ffffff">
<metadata> Svg Vector Icons : http://www.onlinewebfonts.com/icon </metadata>
<g><path d="M867.5,132.5h-735C64.9,132.5,10,187.4,10,255v490c0,67.6,54.9,122.5,122.5,122.5h735c67.7,0,122.5-54.9,122.5-122.5V255C990,187.3,935.2,132.5,867.5,132.5z M867.5,193.7c10.6,0,20.6,2.7,29.3,7.5L500.1,555.4L103.3,201.2c8.7-4.7,18.6-7.4,29.2-7.4L867.5,193.7L867.5,193.7z M928.8,745c0,33.8-27.5,61.3-61.3,61.3h-735c-33.8,0-61.3-27.5-61.3-61.3V255c0-0.2,0-0.4,0-0.5l428.8,382.8l428.7-382.7c0,0.1,0,0.3,0,0.4V745z"/></g>
</svg>