<svg width="1649" height="565" viewBox="0 0 1649 565" fill="none" xmlns="http://www.w3.org/2000/svg">
<g clip-path="url(#clip0)">
<path d="M0.104001 450V26.84H153.872C188.44 26.84 218.637 32.4026 244.464 43.528C270.688 54.6533 292.541 69.752 310.024 88.824C327.507 107.896 340.619 130.345 349.36 156.172C358.101 181.601 362.472 208.819 362.472 237.824C362.472 270.008 357.505 299.212 347.572 325.436C338.036 351.263 324.129 373.513 305.852 392.188C287.575 410.465 265.523 424.769 239.696 435.1C214.267 445.033 185.659 450 153.872 450H0.104001ZM279.628 237.824C279.628 217.56 276.847 198.885 271.284 181.8C265.721 164.715 257.576 150.013 246.848 137.696C236.12 125.379 222.809 115.843 206.916 109.088C191.42 102.333 173.739 98.956 153.872 98.956H82.352V377.884H153.872C174.136 377.884 192.016 374.308 207.512 367.156C223.405 360.004 236.517 350.269 246.848 337.952C257.576 325.237 265.721 310.337 271.284 293.252C276.847 276.167 279.628 257.691 279.628 237.824Z" fill="white"/>
<path d="M874.476 234.44C874.476 208.613 879.045 183.184 888.184 158.152C897.72 132.723 911.428 110.075 929.308 90.208C947.188 70.3413 969.041 54.2493 994.868 41.932C1020.69 29.6146 1050.1 23.456 1083.08 23.456C1122.01 23.456 1155.59 31.9986 1183.8 49.084C1212.41 66.1693 1233.67 88.42 1247.57 115.836L1184.4 159.344C1178.83 147.424 1172.08 137.491 1164.13 129.544C1156.19 121.2 1147.64 114.644 1138.5 109.876C1129.37 105.108 1119.83 101.731 1109.9 99.744C1099.96 97.36 1090.23 96.168 1080.69 96.168C1060.03 96.168 1041.95 100.34 1026.46 108.684C1011.36 117.028 998.643 127.955 988.312 141.464C978.379 154.576 970.829 169.675 965.664 186.76C960.499 203.448 957.916 220.136 957.916 236.824C957.916 255.499 960.896 273.577 966.856 291.06C972.816 308.145 981.16 323.244 991.888 336.356C1003.01 349.468 1016.13 359.997 1031.22 367.944C1046.72 375.891 1063.61 379.864 1081.88 379.864C1091.42 379.864 1101.35 378.672 1111.68 376.288C1122.01 373.904 1131.75 370.129 1140.89 364.964C1150.42 359.799 1159.17 353.243 1167.11 345.296C1175.06 336.952 1181.42 327.019 1186.18 315.496L1253.53 354.236C1246.78 370.129 1237.04 384.235 1224.33 396.552C1212.01 408.472 1197.91 418.604 1182.01 426.948C1166.52 435.292 1149.83 441.649 1131.95 446.02C1114.07 450.391 1096.59 452.576 1079.5 452.576C1049.3 452.576 1021.69 446.219 996.656 433.504C971.624 420.789 949.969 404.3 931.692 384.036C913.812 363.375 899.707 340.131 889.376 314.304C879.443 288.08 874.476 261.459 874.476 234.44ZM1649.09 97.956H1513.8V449H1432.15V97.956H1296.86V25.84H1649.09V97.956Z" fill="#FF0000"/>
<path d="M7.57203 531.771V490.591H21.55C24.8367 490.591 27.698 491.132 30.134 492.215C32.6087 493.298 34.658 494.767 36.282 496.623C37.9447 498.479 39.182 500.664 39.994 503.177C40.8447 505.652 41.27 508.3 41.27 511.123C41.27 514.255 40.806 517.097 39.878 519.649C38.95 522.162 37.616 524.328 35.876 526.145C34.1747 527.924 32.106 529.316 29.67 530.321C27.2727 531.288 24.566 531.771 21.55 531.771H7.57203ZM37.21 511.123C37.21 508.648 36.862 506.386 36.166 504.337C35.47 502.249 34.4454 500.451 33.092 498.943C31.7774 497.435 30.1534 496.275 28.22 495.463C26.2867 494.612 24.0634 494.187 21.55 494.187H11.632V528.175H21.55C24.102 528.175 26.3447 527.75 28.278 526.899C30.25 526.01 31.8934 524.811 33.208 523.303C34.5227 521.756 35.5087 519.958 36.166 517.909C36.862 515.821 37.21 513.559 37.21 511.123ZM61.387 532.351C59.183 532.351 57.153 531.945 55.297 531.133C53.4796 530.282 51.8943 529.142 50.541 527.711C49.1876 526.242 48.1243 524.56 47.351 522.665C46.6163 520.77 46.249 518.74 46.249 516.575C46.249 514.448 46.6163 512.457 47.351 510.601C48.1243 508.706 49.1683 507.063 50.483 505.671C51.8363 504.24 53.441 503.119 55.297 502.307C57.153 501.456 59.1636 501.031 61.329 501.031C63.533 501.031 65.5436 501.456 67.361 502.307C69.217 503.119 70.8023 504.24 72.117 505.671C73.4316 507.102 74.4563 508.745 75.191 510.601C75.9256 512.457 76.293 514.429 76.293 516.517C76.293 516.826 76.293 517.136 76.293 517.445C76.293 517.754 76.2736 517.967 76.235 518.083H50.367C50.483 519.707 50.8503 521.215 51.469 522.607C52.1263 523.96 52.9576 525.14 53.963 526.145C54.9683 527.15 56.109 527.943 57.385 528.523C58.6996 529.064 60.0916 529.335 61.561 529.335C62.5276 529.335 63.4943 529.2 64.461 528.929C65.4276 528.658 66.317 528.291 67.129 527.827C67.941 527.363 68.6756 526.802 69.333 526.145C69.9903 525.449 70.493 524.695 70.841 523.883L74.263 524.811C73.799 525.932 73.1416 526.957 72.291 527.885C71.4403 528.774 70.4543 529.567 69.333 530.263C68.2116 530.92 66.9743 531.423 65.621 531.771C64.2676 532.158 62.8563 532.351 61.387 532.351ZM72.523 515.067C72.407 513.443 72.0203 511.974 71.363 510.659C70.7443 509.306 69.9323 508.146 68.927 507.179C67.9603 506.212 66.8196 505.458 65.505 504.917C64.229 504.376 62.8563 504.105 61.387 504.105C59.9176 504.105 58.5256 504.376 57.211 504.917C55.8963 505.458 54.7363 506.212 53.731 507.179C52.7643 508.146 51.9716 509.306 51.353 510.659C50.773 512.012 50.425 513.482 50.309 515.067H72.523ZM97.922 532.351C95.37 532.351 93.108 531.713 91.136 530.437C89.2027 529.122 87.6367 527.479 86.438 525.507V544.125H82.494V501.553H86.032V507.411C87.2693 505.516 88.874 503.989 90.846 502.829C92.818 501.63 94.964 501.031 97.284 501.031C99.372 501.031 101.286 501.476 103.026 502.365C104.766 503.216 106.274 504.376 107.55 505.845C108.826 507.276 109.812 508.938 110.508 510.833C111.243 512.728 111.61 514.68 111.61 516.691C111.61 518.818 111.281 520.828 110.624 522.723C109.967 524.618 109.019 526.28 107.782 527.711C106.583 529.142 105.133 530.282 103.432 531.133C101.769 531.945 99.9327 532.351 97.922 532.351ZM96.82 528.871C98.444 528.871 99.9133 528.523 101.228 527.827C102.581 527.131 103.722 526.222 104.65 525.101C105.617 523.941 106.351 522.646 106.854 521.215C107.357 519.746 107.608 518.238 107.608 516.691C107.608 515.067 107.318 513.52 106.738 512.051C106.158 510.582 105.365 509.286 104.36 508.165C103.355 507.044 102.156 506.154 100.764 505.497C99.4107 504.84 97.9413 504.511 96.356 504.511C95.3507 504.511 94.2873 504.724 93.166 505.149C92.0833 505.536 91.0587 506.077 90.092 506.773C89.164 507.43 88.352 508.223 87.656 509.151C86.9987 510.04 86.5927 510.988 86.438 511.993V521.273C86.902 522.356 87.482 523.361 88.178 524.289C88.9127 525.217 89.7247 526.029 90.614 526.725C91.542 527.382 92.528 527.904 93.572 528.291C94.616 528.678 95.6987 528.871 96.82 528.871ZM126.005 532.351C124.574 532.351 123.24 532.119 122.003 531.655C120.804 531.152 119.741 530.476 118.813 529.625C117.924 528.774 117.228 527.788 116.725 526.667C116.222 525.507 115.971 524.27 115.971 522.955C115.971 521.64 116.28 520.422 116.899 519.301C117.518 518.18 118.388 517.213 119.509 516.401C120.63 515.589 121.964 514.97 123.511 514.545C125.058 514.081 126.759 513.849 128.615 513.849C130.162 513.849 131.728 513.984 133.313 514.255C134.898 514.526 136.31 514.912 137.547 515.415V512.689C137.547 510.021 136.793 507.914 135.285 506.367C133.777 504.782 131.689 503.989 129.021 503.989C127.474 503.989 125.889 504.298 124.265 504.917C122.641 505.536 120.998 506.425 119.335 507.585L117.943 504.975C121.848 502.346 125.638 501.031 129.311 501.031C133.1 501.031 136.078 502.094 138.243 504.221C140.408 506.348 141.491 509.286 141.491 513.037V526.667C141.491 527.75 141.974 528.291 142.941 528.291V531.771C142.284 531.887 141.781 531.945 141.433 531.945C140.428 531.945 139.635 531.694 139.055 531.191C138.514 530.688 138.224 529.992 138.185 529.103L138.069 526.725C136.677 528.542 134.918 529.934 132.791 530.901C130.703 531.868 128.441 532.351 126.005 532.351ZM126.933 529.335C128.982 529.335 130.858 528.948 132.559 528.175C134.299 527.402 135.614 526.377 136.503 525.101C136.851 524.753 137.102 524.386 137.257 523.999C137.45 523.574 137.547 523.187 137.547 522.839V517.909C136.232 517.406 134.86 517.02 133.429 516.749C132.037 516.478 130.606 516.343 129.137 516.343C126.353 516.343 124.091 516.923 122.351 518.083C120.611 519.243 119.741 520.77 119.741 522.665C119.741 523.593 119.915 524.463 120.263 525.275C120.65 526.087 121.152 526.802 121.771 527.421C122.428 528.001 123.202 528.465 124.091 528.813C124.98 529.161 125.928 529.335 126.933 529.335ZM165.208 505.033C162.54 505.11 160.22 505.845 158.248 507.237C156.276 508.629 154.884 510.543 154.072 512.979V531.771H150.128V501.553H153.84V508.803C154.962 506.483 156.47 504.666 158.364 503.351C160.259 502.036 162.289 501.379 164.454 501.379C164.764 501.379 165.015 501.398 165.208 501.437V505.033ZM185.078 530.321C184.846 530.437 184.498 530.592 184.034 530.785C183.609 530.978 183.106 531.172 182.526 531.365C181.946 531.558 181.289 531.732 180.554 531.887C179.82 532.042 179.046 532.119 178.234 532.119C177.384 532.119 176.572 532.003 175.798 531.771C175.025 531.539 174.348 531.191 173.768 530.727C173.188 530.224 172.724 529.606 172.376 528.871C172.028 528.136 171.854 527.286 171.854 526.319V504.685H167.678V501.553H171.854V491.345H175.798V501.553H182.758V504.685H175.798V525.217C175.876 526.338 176.262 527.17 176.958 527.711C177.693 528.214 178.524 528.465 179.452 528.465C180.574 528.465 181.56 528.291 182.41 527.943C183.261 527.556 183.802 527.286 184.034 527.131L185.078 530.321ZM235.072 531.771H231.128V514.893C231.128 511.374 230.567 508.784 229.446 507.121C228.325 505.458 226.662 504.627 224.458 504.627C223.298 504.627 222.196 504.84 221.152 505.265C220.147 505.69 219.199 506.29 218.31 507.063C217.459 507.836 216.705 508.764 216.048 509.847C215.391 510.891 214.888 512.051 214.54 513.327V531.771H210.596V514.893C210.596 511.297 210.055 508.687 208.972 507.063C207.889 505.439 206.227 504.627 203.984 504.627C201.703 504.627 199.673 505.42 197.894 507.005C196.115 508.59 194.839 510.678 194.066 513.269V531.771H190.122V501.553H193.718V508.397C194.955 506.077 196.579 504.279 198.59 503.003C200.601 501.688 202.824 501.031 205.26 501.031C207.812 501.031 209.842 501.746 211.35 503.177C212.897 504.608 213.844 506.483 214.192 508.803C217.015 503.622 220.901 501.031 225.85 501.031C227.551 501.031 228.982 501.34 230.142 501.959C231.341 502.578 232.288 503.467 232.984 504.627C233.719 505.748 234.241 507.121 234.55 508.745C234.898 510.33 235.072 512.109 235.072 514.081V531.771ZM256.587 532.351C254.383 532.351 252.353 531.945 250.497 531.133C248.68 530.282 247.094 529.142 245.741 527.711C244.388 526.242 243.324 524.56 242.551 522.665C241.816 520.77 241.449 518.74 241.449 516.575C241.449 514.448 241.816 512.457 242.551 510.601C243.324 508.706 244.368 507.063 245.683 505.671C247.036 504.24 248.641 503.119 250.497 502.307C252.353 501.456 254.364 501.031 256.529 501.031C258.733 501.031 260.744 501.456 262.561 502.307C264.417 503.119 266.002 504.24 267.317 505.671C268.632 507.102 269.656 508.745 270.391 510.601C271.126 512.457 271.493 514.429 271.493 516.517C271.493 516.826 271.493 517.136 271.493 517.445C271.493 517.754 271.474 517.967 271.435 518.083H245.567C245.683 519.707 246.05 521.215 246.669 522.607C247.326 523.96 248.158 525.14 249.163 526.145C250.168 527.15 251.309 527.943 252.585 528.523C253.9 529.064 255.292 529.335 256.761 529.335C257.728 529.335 258.694 529.2 259.661 528.929C260.628 528.658 261.517 528.291 262.329 527.827C263.141 527.363 263.876 526.802 264.533 526.145C265.19 525.449 265.693 524.695 266.041 523.883L269.463 524.811C268.999 525.932 268.342 526.957 267.491 527.885C266.64 528.774 265.654 529.567 264.533 530.263C263.412 530.92 262.174 531.423 260.821 531.771C259.468 532.158 258.056 532.351 256.587 532.351ZM267.723 515.067C267.607 513.443 267.22 511.974 266.563 510.659C265.944 509.306 265.132 508.146 264.127 507.179C263.16 506.212 262.02 505.458 260.705 504.917C259.429 504.376 258.056 504.105 256.587 504.105C255.118 504.105 253.726 504.376 252.411 504.917C251.096 505.458 249.936 506.212 248.931 507.179C247.964 508.146 247.172 509.306 246.553 510.659C245.973 512.012 245.625 513.482 245.509 515.067H267.723ZM303.098 531.771H299.154V514.893C299.154 511.297 298.613 508.687 297.53 507.063C296.486 505.439 294.862 504.627 292.658 504.627C291.498 504.627 290.338 504.84 289.178 505.265C288.018 505.69 286.935 506.29 285.93 507.063C284.963 507.836 284.093 508.764 283.32 509.847C282.547 510.891 281.986 512.032 281.638 513.269V531.771H277.694V501.553H281.29V508.397C282.527 506.193 284.287 504.414 286.568 503.061C288.888 501.708 291.401 501.031 294.108 501.031C295.771 501.031 297.182 501.34 298.342 501.959C299.502 502.578 300.43 503.448 301.126 504.569C301.822 505.69 302.325 507.063 302.634 508.687C302.943 510.311 303.098 512.109 303.098 514.081V531.771ZM325.841 530.321C325.609 530.437 325.261 530.592 324.797 530.785C324.372 530.978 323.869 531.172 323.289 531.365C322.709 531.558 322.052 531.732 321.317 531.887C320.582 532.042 319.809 532.119 318.997 532.119C318.146 532.119 317.334 532.003 316.561 531.771C315.788 531.539 315.111 531.191 314.531 530.727C313.951 530.224 313.487 529.606 313.139 528.871C312.791 528.136 312.617 527.286 312.617 526.319V504.685H308.441V501.553H312.617V491.345H316.561V501.553H323.521V504.685H316.561V525.217C316.638 526.338 317.025 527.17 317.721 527.711C318.456 528.214 319.287 528.465 320.215 528.465C321.336 528.465 322.322 528.291 323.173 527.943C324.024 527.556 324.565 527.286 324.797 527.131L325.841 530.321ZM358.66 532.351C356.456 532.351 354.445 531.945 352.628 531.133C350.811 530.282 349.225 529.142 347.872 527.711C346.557 526.28 345.533 524.618 344.798 522.723C344.063 520.828 343.696 518.837 343.696 516.749C343.696 514.622 344.063 512.612 344.798 510.717C345.571 508.822 346.615 507.16 347.93 505.729C349.283 504.298 350.869 503.158 352.686 502.307C354.503 501.456 356.495 501.031 358.66 501.031C360.825 501.031 362.817 501.456 364.634 502.307C366.49 503.158 368.075 504.298 369.39 505.729C370.743 507.16 371.787 508.822 372.522 510.717C373.295 512.612 373.682 514.622 373.682 516.749C373.682 518.837 373.315 520.828 372.58 522.723C371.845 524.618 370.801 526.28 369.448 527.711C368.133 529.142 366.548 530.282 364.692 531.133C362.875 531.945 360.864 532.351 358.66 532.351ZM347.698 516.807C347.698 518.508 347.988 520.094 348.568 521.563C349.148 522.994 349.921 524.27 350.888 525.391C351.893 526.474 353.053 527.324 354.368 527.943C355.721 528.562 357.152 528.871 358.66 528.871C360.168 528.871 361.579 528.562 362.894 527.943C364.247 527.286 365.427 526.416 366.432 525.333C367.437 524.212 368.23 522.916 368.81 521.447C369.39 519.978 369.68 518.392 369.68 516.691C369.68 515.028 369.39 513.462 368.81 511.993C368.23 510.485 367.437 509.19 366.432 508.107C365.427 506.986 364.247 506.116 362.894 505.497C361.579 504.84 360.168 504.511 358.66 504.511C357.152 504.511 355.741 504.84 354.426 505.497C353.111 506.116 351.951 506.986 350.946 508.107C349.941 509.228 349.148 510.543 348.568 512.051C347.988 513.52 347.698 515.106 347.698 516.807ZM381.391 531.771V504.685H377.215V501.553H381.391V500.741C381.391 497.029 382.184 494.129 383.769 492.041C385.354 489.914 387.52 488.851 390.265 488.851C391.464 488.851 392.624 489.025 393.745 489.373C394.866 489.721 395.833 490.185 396.645 490.765L395.427 493.607C394.886 493.182 394.209 492.853 393.397 492.621C392.624 492.389 391.831 492.273 391.019 492.273C389.163 492.273 387.752 492.988 386.785 494.419C385.818 495.85 385.335 497.918 385.335 500.625V501.553H393.687V504.685H385.335V531.771H381.391ZM413.667 531.771V490.591H417.727V531.771H413.667ZM452.761 531.771H448.817V514.893C448.817 511.297 448.276 508.687 447.193 507.063C446.149 505.439 444.525 504.627 442.321 504.627C441.161 504.627 440.001 504.84 438.841 505.265C437.681 505.69 436.599 506.29 435.593 507.063C434.627 507.836 433.757 508.764 432.983 509.847C432.21 510.891 431.649 512.032 431.301 513.269V531.771H427.357V501.553H430.953V508.397C432.191 506.193 433.95 504.414 436.231 503.061C438.551 501.708 441.065 501.031 443.771 501.031C445.434 501.031 446.845 501.34 448.005 501.959C449.165 502.578 450.093 503.448 450.789 504.569C451.485 505.69 451.988 507.063 452.297 508.687C452.607 510.311 452.761 512.109 452.761 514.081V531.771ZM462.455 531.771V504.685H458.279V501.553H462.455V500.741C462.455 497.029 463.247 494.129 464.833 492.041C466.418 489.914 468.583 488.851 471.329 488.851C472.527 488.851 473.687 489.025 474.809 489.373C475.93 489.721 476.897 490.185 477.709 490.765L476.491 493.607C475.949 493.182 475.273 492.853 474.461 492.621C473.687 492.389 472.895 492.273 472.083 492.273C470.227 492.273 468.815 492.988 467.849 494.419C466.882 495.85 466.399 497.918 466.399 500.625V501.553H474.751V504.685H466.399V531.771H462.455ZM491.612 532.351C489.408 532.351 487.397 531.945 485.58 531.133C483.763 530.282 482.177 529.142 480.824 527.711C479.509 526.28 478.485 524.618 477.75 522.723C477.015 520.828 476.648 518.837 476.648 516.749C476.648 514.622 477.015 512.612 477.75 510.717C478.523 508.822 479.567 507.16 480.882 505.729C482.235 504.298 483.821 503.158 485.638 502.307C487.455 501.456 489.447 501.031 491.612 501.031C493.777 501.031 495.769 501.456 497.586 502.307C499.442 503.158 501.027 504.298 502.342 505.729C503.695 507.16 504.739 508.822 505.474 510.717C506.247 512.612 506.634 514.622 506.634 516.749C506.634 518.837 506.267 520.828 505.532 522.723C504.797 524.618 503.753 526.28 502.4 527.711C501.085 529.142 499.5 530.282 497.644 531.133C495.827 531.945 493.816 532.351 491.612 532.351ZM480.65 516.807C480.65 518.508 480.94 520.094 481.52 521.563C482.1 522.994 482.873 524.27 483.84 525.391C484.845 526.474 486.005 527.324 487.32 527.943C488.673 528.562 490.104 528.871 491.612 528.871C493.12 528.871 494.531 528.562 495.846 527.943C497.199 527.286 498.379 526.416 499.384 525.333C500.389 524.212 501.182 522.916 501.762 521.447C502.342 519.978 502.632 518.392 502.632 516.691C502.632 515.028 502.342 513.462 501.762 511.993C501.182 510.485 500.389 509.19 499.384 508.107C498.379 506.986 497.199 506.116 495.846 505.497C494.531 504.84 493.12 504.511 491.612 504.511C490.104 504.511 488.693 504.84 487.378 505.497C486.063 506.116 484.903 506.986 483.898 508.107C482.893 509.228 482.1 510.543 481.52 512.051C480.94 513.52 480.65 515.106 480.65 516.807ZM528.426 505.033C525.758 505.11 523.438 505.845 521.466 507.237C519.494 508.629 518.102 510.543 517.29 512.979V531.771H513.346V501.553H517.058V508.803C518.179 506.483 519.687 504.666 521.582 503.351C523.477 502.036 525.507 501.379 527.672 501.379C527.981 501.379 528.233 501.398 528.426 501.437V505.033ZM578.746 531.771H574.802V514.893C574.802 511.374 574.241 508.784 573.12 507.121C571.999 505.458 570.336 504.627 568.132 504.627C566.972 504.627 565.87 504.84 564.826 505.265C563.821 505.69 562.873 506.29 561.984 507.063C561.133 507.836 560.379 508.764 559.722 509.847C559.065 510.891 558.562 512.051 558.214 513.327V531.771H554.27V514.893C554.27 511.297 553.729 508.687 552.646 507.063C551.563 505.439 549.901 504.627 547.658 504.627C545.377 504.627 543.347 505.42 541.568 507.005C539.789 508.59 538.513 510.678 537.74 513.269V531.771H533.796V501.553H537.392V508.397C538.629 506.077 540.253 504.279 542.264 503.003C544.275 501.688 546.498 501.031 548.934 501.031C551.486 501.031 553.516 501.746 555.024 503.177C556.571 504.608 557.518 506.483 557.866 508.803C560.689 503.622 564.575 501.031 569.524 501.031C571.225 501.031 572.656 501.34 573.816 501.959C575.015 502.578 575.962 503.467 576.658 504.627C577.393 505.748 577.915 507.121 578.224 508.745C578.572 510.33 578.746 512.109 578.746 514.081V531.771ZM594.809 532.351C593.378 532.351 592.044 532.119 590.807 531.655C589.608 531.152 588.545 530.476 587.617 529.625C586.728 528.774 586.032 527.788 585.529 526.667C585.026 525.507 584.775 524.27 584.775 522.955C584.775 521.64 585.084 520.422 585.703 519.301C586.322 518.18 587.192 517.213 588.313 516.401C589.434 515.589 590.768 514.97 592.315 514.545C593.862 514.081 595.563 513.849 597.419 513.849C598.966 513.849 600.532 513.984 602.117 514.255C603.702 514.526 605.114 514.912 606.351 515.415V512.689C606.351 510.021 605.597 507.914 604.089 506.367C602.581 504.782 600.493 503.989 597.825 503.989C596.278 503.989 594.693 504.298 593.069 504.917C591.445 505.536 589.802 506.425 588.139 507.585L586.747 504.975C590.652 502.346 594.442 501.031 598.115 501.031C601.904 501.031 604.882 502.094 607.047 504.221C609.212 506.348 610.295 509.286 610.295 513.037V526.667C610.295 527.75 610.778 528.291 611.745 528.291V531.771C611.088 531.887 610.585 531.945 610.237 531.945C609.232 531.945 608.439 531.694 607.859 531.191C607.318 530.688 607.028 529.992 606.989 529.103L606.873 526.725C605.481 528.542 603.722 529.934 601.595 530.901C599.507 531.868 597.245 532.351 594.809 532.351ZM595.737 529.335C597.786 529.335 599.662 528.948 601.363 528.175C603.103 527.402 604.418 526.377 605.307 525.101C605.655 524.753 605.906 524.386 606.061 523.999C606.254 523.574 606.351 523.187 606.351 522.839V517.909C605.036 517.406 603.664 517.02 602.233 516.749C600.841 516.478 599.41 516.343 597.941 516.343C595.157 516.343 592.895 516.923 591.155 518.083C589.415 519.243 588.545 520.77 588.545 522.665C588.545 523.593 588.719 524.463 589.067 525.275C589.454 526.087 589.956 526.802 590.575 527.421C591.232 528.001 592.006 528.465 592.895 528.813C593.784 529.161 594.732 529.335 595.737 529.335ZM633.206 530.321C632.974 530.437 632.626 530.592 632.162 530.785C631.736 530.978 631.234 531.172 630.654 531.365C630.074 531.558 629.416 531.732 628.682 531.887C627.947 532.042 627.174 532.119 626.362 532.119C625.511 532.119 624.699 532.003 623.926 531.771C623.152 531.539 622.476 531.191 621.896 530.727C621.316 530.224 620.852 529.606 620.504 528.871C620.156 528.136 619.982 527.286 619.982 526.319V504.685H615.806V501.553H619.982V491.345H623.926V501.553H630.886V504.685H623.926V525.217C624.003 526.338 624.39 527.17 625.086 527.711C625.82 528.214 626.652 528.465 627.58 528.465C628.701 528.465 629.687 528.291 630.538 527.943C631.388 527.556 631.93 527.286 632.162 527.131L633.206 530.321ZM638.25 531.771V501.553H642.194V531.771H638.25ZM638.25 495.231V489.431H642.194V495.231H638.25ZM663.872 532.351C661.668 532.351 659.658 531.945 657.84 531.133C656.023 530.282 654.438 529.142 653.084 527.711C651.77 526.28 650.745 524.618 650.01 522.723C649.276 520.828 648.908 518.837 648.908 516.749C648.908 514.622 649.276 512.612 650.01 510.717C650.784 508.822 651.828 507.16 653.142 505.729C654.496 504.298 656.081 503.158 657.898 502.307C659.716 501.456 661.707 501.031 663.872 501.031C666.038 501.031 668.029 501.456 669.846 502.307C671.702 503.158 673.288 504.298 674.602 505.729C675.956 507.16 677 508.822 677.734 510.717C678.508 512.612 678.894 514.622 678.894 516.749C678.894 518.837 678.527 520.828 677.792 522.723C677.058 524.618 676.014 526.28 674.66 527.711C673.346 529.142 671.76 530.282 669.904 531.133C668.087 531.945 666.076 532.351 663.872 532.351ZM652.91 516.807C652.91 518.508 653.2 520.094 653.78 521.563C654.36 522.994 655.134 524.27 656.1 525.391C657.106 526.474 658.266 527.324 659.58 527.943C660.934 528.562 662.364 528.871 663.872 528.871C665.38 528.871 666.792 528.562 668.106 527.943C669.46 527.286 670.639 526.416 671.644 525.333C672.65 524.212 673.442 522.916 674.022 521.447C674.602 519.978 674.892 518.392 674.892 516.691C674.892 515.028 674.602 513.462 674.022 511.993C673.442 510.485 672.65 509.19 671.644 508.107C670.639 506.986 669.46 506.116 668.106 505.497C666.792 504.84 665.38 504.511 663.872 504.511C662.364 504.511 660.953 504.84 659.638 505.497C658.324 506.116 657.164 506.986 656.158 508.107C655.153 509.228 654.36 510.543 653.78 512.051C653.2 513.52 652.91 515.106 652.91 516.807ZM711.011 531.771H707.067V514.893C707.067 511.297 706.525 508.687 705.443 507.063C704.399 505.439 702.775 504.627 700.571 504.627C699.411 504.627 698.251 504.84 697.091 505.265C695.931 505.69 694.848 506.29 693.843 507.063C692.876 507.836 692.006 508.764 691.233 509.847C690.459 510.891 689.899 512.032 689.551 513.269V531.771H685.607V501.553H689.203V508.397C690.44 506.193 692.199 504.414 694.481 503.061C696.801 501.708 699.314 501.031 702.021 501.031C703.683 501.031 705.095 501.34 706.255 501.959C707.415 502.578 708.343 503.448 709.039 504.569C709.735 505.69 710.237 507.063 710.547 508.687C710.856 510.311 711.011 512.109 711.011 514.081V531.771ZM742.034 532.351C740.604 532.351 739.27 532.119 738.032 531.655C736.834 531.152 735.77 530.476 734.842 529.625C733.953 528.774 733.257 527.788 732.754 526.667C732.252 525.507 732 524.27 732 522.955C732 521.64 732.31 520.422 732.928 519.301C733.547 518.18 734.417 517.213 735.538 516.401C736.66 515.589 737.994 514.97 739.54 514.545C741.087 514.081 742.788 513.849 744.644 513.849C746.191 513.849 747.757 513.984 749.342 514.255C750.928 514.526 752.339 514.912 753.576 515.415V512.689C753.576 510.021 752.822 507.914 751.314 506.367C749.806 504.782 747.718 503.989 745.05 503.989C743.504 503.989 741.918 504.298 740.294 504.917C738.67 505.536 737.027 506.425 735.364 507.585L733.972 504.975C737.878 502.346 741.667 501.031 745.34 501.031C749.13 501.031 752.107 502.094 754.272 504.221C756.438 506.348 757.52 509.286 757.52 513.037V526.667C757.52 527.75 758.004 528.291 758.97 528.291V531.771C758.313 531.887 757.81 531.945 757.462 531.945C756.457 531.945 755.664 531.694 755.084 531.191C754.543 530.688 754.253 529.992 754.214 529.103L754.098 526.725C752.706 528.542 750.947 529.934 748.82 530.901C746.732 531.868 744.47 532.351 742.034 532.351ZM742.962 529.335C745.012 529.335 746.887 528.948 748.588 528.175C750.328 527.402 751.643 526.377 752.532 525.101C752.88 524.753 753.132 524.386 753.286 523.999C753.48 523.574 753.576 523.187 753.576 522.839V517.909C752.262 517.406 750.889 517.02 749.458 516.749C748.066 516.478 746.636 516.343 745.166 516.343C742.382 516.343 740.12 516.923 738.38 518.083C736.64 519.243 735.77 520.77 735.77 522.665C735.77 523.593 735.944 524.463 736.292 525.275C736.679 526.087 737.182 526.802 737.8 527.421C738.458 528.001 739.231 528.465 740.12 528.813C741.01 529.161 741.957 529.335 742.962 529.335ZM791.562 531.771H787.618V514.893C787.618 511.297 787.076 508.687 785.994 507.063C784.95 505.439 783.326 504.627 781.122 504.627C779.962 504.627 778.802 504.84 777.642 505.265C776.482 505.69 775.399 506.29 774.394 507.063C773.427 507.836 772.557 508.764 771.784 509.847C771.01 510.891 770.45 512.032 770.102 513.269V531.771H766.158V501.553H769.754V508.397C770.991 506.193 772.75 504.414 775.032 503.061C777.352 501.708 779.865 501.031 782.572 501.031C784.234 501.031 785.646 501.34 786.806 501.959C787.966 502.578 788.894 503.448 789.59 504.569C790.286 505.69 790.788 507.063 791.098 508.687C791.407 510.311 791.562 512.109 791.562 514.081V531.771ZM812.5 532.351C810.412 532.351 808.479 531.926 806.7 531.075C804.921 530.186 803.394 529.026 802.118 527.595C800.842 526.164 799.837 524.521 799.102 522.665C798.406 520.77 798.058 518.798 798.058 516.749C798.058 514.622 798.406 512.612 799.102 510.717C799.798 508.784 800.745 507.102 801.944 505.671C803.181 504.24 804.631 503.119 806.294 502.307C807.995 501.456 809.851 501.031 811.862 501.031C814.414 501.031 816.676 501.708 818.648 503.061C820.62 504.376 822.167 505.98 823.288 507.875V489.431H827.232V526.667C827.232 527.75 827.696 528.291 828.624 528.291V531.771C828.044 531.887 827.58 531.945 827.232 531.945C826.304 531.945 825.492 531.655 824.796 531.075C824.1 530.456 823.752 529.722 823.752 528.871V525.913C822.553 527.885 820.929 529.451 818.88 530.611C816.831 531.771 814.704 532.351 812.5 532.351ZM813.37 528.871C814.337 528.871 815.361 528.678 816.444 528.291C817.565 527.904 818.609 527.382 819.576 526.725C820.543 526.029 821.355 525.236 822.012 524.347C822.708 523.419 823.133 522.433 823.288 521.389V512.051C822.901 511.007 822.341 510.04 821.606 509.151C820.871 508.223 820.021 507.411 819.054 506.715C818.126 506.019 817.121 505.478 816.038 505.091C814.955 504.704 813.892 504.511 812.848 504.511C811.224 504.511 809.755 504.859 808.44 505.555C807.125 506.251 805.985 507.179 805.018 508.339C804.09 509.46 803.375 510.756 802.872 512.225C802.369 513.694 802.118 515.202 802.118 516.749C802.118 518.373 802.408 519.92 802.988 521.389C803.568 522.858 804.361 524.154 805.366 525.275C806.371 526.358 807.551 527.228 808.904 527.885C810.296 528.542 811.785 528.871 813.37 528.871ZM849.269 510.891C849.269 508.416 849.695 505.961 850.545 503.525C851.435 501.05 852.711 498.846 854.373 496.913C856.036 494.98 858.085 493.414 860.521 492.215C862.957 490.978 865.722 490.359 868.815 490.359C872.489 490.359 875.621 491.19 878.211 492.853C880.841 494.516 882.774 496.681 884.011 499.349L880.821 501.321C880.164 499.968 879.352 498.827 878.385 497.899C877.457 496.971 876.452 496.217 875.369 495.637C874.287 495.057 873.165 494.651 872.005 494.419C870.845 494.148 869.705 494.013 868.583 494.013C866.109 494.013 863.924 494.516 862.029 495.521C860.135 496.526 858.53 497.841 857.215 499.465C855.939 501.089 854.973 502.926 854.315 504.975C853.658 506.986 853.329 509.035 853.329 511.123C853.329 513.404 853.716 515.589 854.489 517.677C855.301 519.765 856.384 521.621 857.737 523.245C859.129 524.83 860.753 526.106 862.609 527.073C864.504 528.001 866.553 528.465 868.757 528.465C869.917 528.465 871.097 528.33 872.295 528.059C873.533 527.75 874.712 527.286 875.833 526.667C876.993 526.01 878.057 525.217 879.023 524.289C879.99 523.322 880.802 522.162 881.459 520.809L884.823 522.549C884.166 524.096 883.238 525.468 882.039 526.667C880.841 527.827 879.507 528.813 878.037 529.625C876.568 530.437 875.002 531.056 873.339 531.481C871.715 531.906 870.111 532.119 868.525 532.119C865.703 532.119 863.112 531.5 860.753 530.263C858.395 529.026 856.365 527.421 854.663 525.449C852.962 523.438 851.628 521.176 850.661 518.663C849.733 516.111 849.269 513.52 849.269 510.891ZM903.937 532.351C901.733 532.351 899.722 531.945 897.905 531.133C896.088 530.282 894.502 529.142 893.149 527.711C891.834 526.28 890.81 524.618 890.075 522.723C889.34 520.828 888.973 518.837 888.973 516.749C888.973 514.622 889.34 512.612 890.075 510.717C890.848 508.822 891.892 507.16 893.207 505.729C894.56 504.298 896.146 503.158 897.963 502.307C899.78 501.456 901.772 501.031 903.937 501.031C906.102 501.031 908.094 501.456 909.911 502.307C911.767 503.158 913.352 504.298 914.667 505.729C916.02 507.16 917.064 508.822 917.799 510.717C918.572 512.612 918.959 514.622 918.959 516.749C918.959 518.837 918.592 520.828 917.857 522.723C917.122 524.618 916.078 526.28 914.725 527.711C913.41 529.142 911.825 530.282 909.969 531.133C908.152 531.945 906.141 532.351 903.937 532.351ZM892.975 516.807C892.975 518.508 893.265 520.094 893.845 521.563C894.425 522.994 895.198 524.27 896.165 525.391C897.17 526.474 898.33 527.324 899.645 527.943C900.998 528.562 902.429 528.871 903.937 528.871C905.445 528.871 906.856 528.562 908.171 527.943C909.524 527.286 910.704 526.416 911.709 525.333C912.714 524.212 913.507 522.916 914.087 521.447C914.667 519.978 914.957 518.392 914.957 516.691C914.957 515.028 914.667 513.462 914.087 511.993C913.507 510.485 912.714 509.19 911.709 508.107C910.704 506.986 909.524 506.116 908.171 505.497C906.856 504.84 905.445 504.511 903.937 504.511C902.429 504.511 901.018 504.84 899.703 505.497C898.388 506.116 897.228 506.986 896.223 508.107C895.218 509.228 894.425 510.543 893.845 512.051C893.265 513.52 892.975 515.106 892.975 516.807ZM970.621 531.771H966.677V514.893C966.677 511.374 966.117 508.784 964.995 507.121C963.874 505.458 962.211 504.627 960.007 504.627C958.847 504.627 957.745 504.84 956.701 505.265C955.696 505.69 954.749 506.29 953.859 507.063C953.009 507.836 952.255 508.764 951.597 509.847C950.94 510.891 950.437 512.051 950.089 513.327V531.771H946.145V514.893C946.145 511.297 945.604 508.687 944.521 507.063C943.439 505.439 941.776 504.627 939.533 504.627C937.252 504.627 935.222 505.42 933.443 507.005C931.665 508.59 930.389 510.678 929.615 513.269V531.771H925.671V501.553H929.267V508.397C930.505 506.077 932.129 504.279 934.139 503.003C936.15 501.688 938.373 501.031 940.809 501.031C943.361 501.031 945.391 501.746 946.899 503.177C948.446 504.608 949.393 506.483 949.741 508.803C952.564 503.622 956.45 501.031 961.399 501.031C963.101 501.031 964.531 501.34 965.691 501.959C966.89 502.578 967.837 503.467 968.533 504.627C969.268 505.748 969.79 507.121 970.099 508.745C970.447 510.33 970.621 512.109 970.621 514.081V531.771ZM1024.04 531.771H1020.09V514.893C1020.09 511.374 1019.53 508.784 1018.41 507.121C1017.29 505.458 1015.63 504.627 1013.42 504.627C1012.26 504.627 1011.16 504.84 1010.12 505.265C1009.11 505.69 1008.16 506.29 1007.27 507.063C1006.42 507.836 1005.67 508.764 1005.01 509.847C1004.35 510.891 1003.85 512.051 1003.5 513.327V531.771H999.56V514.893C999.56 511.297 999.019 508.687 997.936 507.063C996.853 505.439 995.191 504.627 992.948 504.627C990.667 504.627 988.637 505.42 986.858 507.005C985.079 508.59 983.803 510.678 983.03 513.269V531.771H979.086V501.553H982.682V508.397C983.919 506.077 985.543 504.279 987.554 503.003C989.565 501.688 991.788 501.031 994.224 501.031C996.776 501.031 998.806 501.746 1000.31 503.177C1001.86 504.608 1002.81 506.483 1003.16 508.803C1005.98 503.622 1009.86 501.031 1014.81 501.031C1016.52 501.031 1017.95 501.34 1019.11 501.959C1020.3 502.578 1021.25 503.467 1021.95 504.627C1022.68 505.748 1023.2 507.121 1023.51 508.745C1023.86 510.33 1024.04 512.109 1024.04 514.081V531.771ZM1041.95 532.351C1038.67 532.351 1036.21 531.268 1034.59 529.103C1033 526.899 1032.21 523.632 1032.21 519.301V501.553H1036.15V518.605C1036.15 525.449 1038.49 528.871 1043.17 528.871C1044.33 528.871 1045.47 528.678 1046.59 528.291C1047.72 527.904 1048.74 527.344 1049.67 526.609C1050.64 525.874 1051.49 525.004 1052.22 523.999C1052.99 522.994 1053.61 521.853 1054.08 520.577V501.553H1058.02V526.667C1058.02 527.75 1058.48 528.291 1059.41 528.291V531.771C1058.95 531.848 1058.56 531.887 1058.25 531.887C1057.98 531.887 1057.79 531.887 1057.67 531.887C1056.74 531.848 1055.99 531.52 1055.41 530.901C1054.83 530.282 1054.54 529.451 1054.54 528.407V524.927C1053.23 527.286 1051.43 529.122 1049.15 530.437C1046.9 531.713 1044.51 532.351 1041.95 532.351ZM1092.46 531.771H1088.51V514.893C1088.51 511.297 1087.97 508.687 1086.89 507.063C1085.85 505.439 1084.22 504.627 1082.02 504.627C1080.86 504.627 1079.7 504.84 1078.54 505.265C1077.38 505.69 1076.3 506.29 1075.29 507.063C1074.32 507.836 1073.45 508.764 1072.68 509.847C1071.91 510.891 1071.35 512.032 1071 513.269V531.771H1067.05V501.553H1070.65V508.397C1071.89 506.193 1073.65 504.414 1075.93 503.061C1078.25 501.708 1080.76 501.031 1083.47 501.031C1085.13 501.031 1086.54 501.34 1087.7 501.959C1088.86 502.578 1089.79 503.448 1090.49 504.569C1091.18 505.69 1091.69 507.063 1091.99 508.687C1092.3 510.311 1092.46 512.109 1092.46 514.081V531.771ZM1100.98 531.771V501.553H1104.93V531.771H1100.98ZM1100.98 495.231V489.431H1104.93V495.231H1100.98ZM1111.64 516.575C1111.64 514.448 1112.01 512.438 1112.75 510.543C1113.48 508.648 1114.51 507.005 1115.82 505.613C1117.17 504.182 1118.78 503.061 1120.63 502.249C1122.49 501.437 1124.54 501.031 1126.78 501.031C1129.64 501.031 1132.14 501.688 1134.26 503.003C1136.39 504.279 1138 506.019 1139.08 508.223L1135.25 509.441C1134.4 507.894 1133.2 506.696 1131.65 505.845C1130.15 504.956 1128.46 504.511 1126.61 504.511C1125.06 504.511 1123.61 504.82 1122.26 505.439C1120.94 506.058 1119.78 506.908 1118.78 507.991C1117.81 509.035 1117.04 510.292 1116.46 511.761C1115.92 513.23 1115.65 514.835 1115.65 516.575C1115.65 518.276 1115.94 519.881 1116.52 521.389C1117.1 522.897 1117.89 524.212 1118.89 525.333C1119.9 526.416 1121.06 527.286 1122.37 527.943C1123.73 528.562 1125.16 528.871 1126.67 528.871C1127.63 528.871 1128.58 528.736 1129.51 528.465C1130.47 528.194 1131.36 527.827 1132.18 527.363C1132.99 526.86 1133.68 526.3 1134.26 525.681C1134.84 525.062 1135.25 524.405 1135.48 523.709L1139.37 524.869C1138.94 525.952 1138.32 526.957 1137.51 527.885C1136.7 528.774 1135.73 529.567 1134.61 530.263C1133.53 530.92 1132.31 531.423 1130.96 531.771C1129.64 532.158 1128.27 532.351 1126.84 532.351C1124.64 532.351 1122.61 531.945 1120.75 531.133C1118.89 530.282 1117.29 529.142 1115.94 527.711C1114.58 526.242 1113.52 524.56 1112.75 522.665C1112.01 520.77 1111.64 518.74 1111.64 516.575ZM1153.28 532.351C1151.85 532.351 1150.51 532.119 1149.28 531.655C1148.08 531.152 1147.01 530.476 1146.09 529.625C1145.2 528.774 1144.5 527.788 1144 526.667C1143.5 525.507 1143.24 524.27 1143.24 522.955C1143.24 521.64 1143.55 520.422 1144.17 519.301C1144.79 518.18 1145.66 517.213 1146.78 516.401C1147.9 515.589 1149.24 514.97 1150.78 514.545C1152.33 514.081 1154.03 513.849 1155.89 513.849C1157.43 513.849 1159 513.984 1160.59 514.255C1162.17 514.526 1163.58 514.912 1164.82 515.415V512.689C1164.82 510.021 1164.07 507.914 1162.56 506.367C1161.05 504.782 1158.96 503.989 1156.29 503.989C1154.75 503.989 1153.16 504.298 1151.54 504.917C1149.91 505.536 1148.27 506.425 1146.61 507.585L1145.22 504.975C1149.12 502.346 1152.91 501.031 1156.58 501.031C1160.37 501.031 1163.35 502.094 1165.52 504.221C1167.68 506.348 1168.76 509.286 1168.76 513.037V526.667C1168.76 527.75 1169.25 528.291 1170.21 528.291V531.771C1169.56 531.887 1169.05 531.945 1168.71 531.945C1167.7 531.945 1166.91 531.694 1166.33 531.191C1165.79 530.688 1165.5 529.992 1165.46 529.103L1165.34 526.725C1163.95 528.542 1162.19 529.934 1160.06 530.901C1157.98 531.868 1155.71 532.351 1153.28 532.351ZM1154.21 529.335C1156.26 529.335 1158.13 528.948 1159.83 528.175C1161.57 527.402 1162.89 526.377 1163.78 525.101C1164.12 524.753 1164.38 524.386 1164.53 523.999C1164.72 523.574 1164.82 523.187 1164.82 522.839V517.909C1163.51 517.406 1162.13 517.02 1160.7 516.749C1159.31 516.478 1157.88 516.343 1156.41 516.343C1153.63 516.343 1151.36 516.923 1149.62 518.083C1147.88 519.243 1147.01 520.77 1147.01 522.665C1147.01 523.593 1147.19 524.463 1147.54 525.275C1147.92 526.087 1148.43 526.802 1149.04 527.421C1149.7 528.001 1150.47 528.465 1151.36 528.813C1152.25 529.161 1153.2 529.335 1154.21 529.335ZM1191.67 530.321C1191.44 530.437 1191.09 530.592 1190.63 530.785C1190.21 530.978 1189.7 531.172 1189.12 531.365C1188.54 531.558 1187.89 531.732 1187.15 531.887C1186.42 532.042 1185.64 532.119 1184.83 532.119C1183.98 532.119 1183.17 532.003 1182.39 531.771C1181.62 531.539 1180.94 531.191 1180.36 530.727C1179.78 530.224 1179.32 529.606 1178.97 528.871C1178.62 528.136 1178.45 527.286 1178.45 526.319V504.685H1174.27V501.553H1178.45V491.345H1182.39V501.553H1189.35V504.685H1182.39V525.217C1182.47 526.338 1182.86 527.17 1183.55 527.711C1184.29 528.214 1185.12 528.465 1186.05 528.465C1187.17 528.465 1188.16 528.291 1189.01 527.943C1189.86 527.556 1190.4 527.286 1190.63 527.131L1191.67 530.321ZM1196.72 531.771V501.553H1200.66V531.771H1196.72ZM1196.72 495.231V489.431H1200.66V495.231H1196.72ZM1222.34 532.351C1220.14 532.351 1218.13 531.945 1216.31 531.133C1214.49 530.282 1212.91 529.142 1211.55 527.711C1210.24 526.28 1209.21 524.618 1208.48 522.723C1207.74 520.828 1207.38 518.837 1207.38 516.749C1207.38 514.622 1207.74 512.612 1208.48 510.717C1209.25 508.822 1210.3 507.16 1211.61 505.729C1212.96 504.298 1214.55 503.158 1216.37 502.307C1218.18 501.456 1220.18 501.031 1222.34 501.031C1224.51 501.031 1226.5 501.456 1228.32 502.307C1230.17 503.158 1231.76 504.298 1233.07 505.729C1234.42 507.16 1235.47 508.822 1236.2 510.717C1236.98 512.612 1237.36 514.622 1237.36 516.749C1237.36 518.837 1237 520.828 1236.26 522.723C1235.53 524.618 1234.48 526.28 1233.13 527.711C1231.81 529.142 1230.23 530.282 1228.37 531.133C1226.56 531.945 1224.55 532.351 1222.34 532.351ZM1211.38 516.807C1211.38 518.508 1211.67 520.094 1212.25 521.563C1212.83 522.994 1213.6 524.27 1214.57 525.391C1215.57 526.474 1216.73 527.324 1218.05 527.943C1219.4 528.562 1220.83 528.871 1222.34 528.871C1223.85 528.871 1225.26 528.562 1226.58 527.943C1227.93 527.286 1229.11 526.416 1230.11 525.333C1231.12 524.212 1231.91 522.916 1232.49 521.447C1233.07 519.978 1233.36 518.392 1233.36 516.691C1233.36 515.028 1233.07 513.462 1232.49 511.993C1231.91 510.485 1231.12 509.19 1230.11 508.107C1229.11 506.986 1227.93 506.116 1226.58 505.497C1225.26 504.84 1223.85 504.511 1222.34 504.511C1220.83 504.511 1219.42 504.84 1218.11 505.497C1216.79 506.116 1215.63 506.986 1214.63 508.107C1213.62 509.228 1212.83 510.543 1212.25 512.051C1211.67 513.52 1211.38 515.106 1211.38 516.807ZM1269.48 531.771H1265.54V514.893C1265.54 511.297 1264.99 508.687 1263.91 507.063C1262.87 505.439 1261.24 504.627 1259.04 504.627C1257.88 504.627 1256.72 504.84 1255.56 505.265C1254.4 505.69 1253.32 506.29 1252.31 507.063C1251.34 507.836 1250.47 508.764 1249.7 509.847C1248.93 510.891 1248.37 512.032 1248.02 513.269V531.771H1244.08V501.553H1247.67V508.397C1248.91 506.193 1250.67 504.414 1252.95 503.061C1255.27 501.708 1257.78 501.031 1260.49 501.031C1262.15 501.031 1263.56 501.34 1264.72 501.959C1265.88 502.578 1266.81 503.448 1267.51 504.569C1268.2 505.69 1268.71 507.063 1269.02 508.687C1269.32 510.311 1269.48 512.109 1269.48 514.081V531.771ZM1321.31 494.187H1306.63V531.771H1302.57V494.187H1287.9V490.591H1321.31V494.187ZM1333.2 532.351C1331 532.351 1328.97 531.945 1327.11 531.133C1325.29 530.282 1323.71 529.142 1322.36 527.711C1321 526.242 1319.94 524.56 1319.17 522.665C1318.43 520.77 1318.06 518.74 1318.06 516.575C1318.06 514.448 1318.43 512.457 1319.17 510.601C1319.94 508.706 1320.98 507.063 1322.3 505.671C1323.65 504.24 1325.26 503.119 1327.11 502.307C1328.97 501.456 1330.98 501.031 1333.14 501.031C1335.35 501.031 1337.36 501.456 1339.18 502.307C1341.03 503.119 1342.62 504.24 1343.93 505.671C1345.25 507.102 1346.27 508.745 1347.01 510.601C1347.74 512.457 1348.11 514.429 1348.11 516.517C1348.11 516.826 1348.11 517.136 1348.11 517.445C1348.11 517.754 1348.09 517.967 1348.05 518.083H1322.18C1322.3 519.707 1322.67 521.215 1323.28 522.607C1323.94 523.96 1324.77 525.14 1325.78 526.145C1326.78 527.15 1327.92 527.943 1329.2 528.523C1330.51 529.064 1331.91 529.335 1333.38 529.335C1334.34 529.335 1335.31 529.2 1336.28 528.929C1337.24 528.658 1338.13 528.291 1338.94 527.827C1339.76 527.363 1340.49 526.802 1341.15 526.145C1341.81 525.449 1342.31 524.695 1342.66 523.883L1346.08 524.811C1345.61 525.932 1344.96 526.957 1344.11 527.885C1343.26 528.774 1342.27 529.567 1341.15 530.263C1340.03 530.92 1338.79 531.423 1337.44 531.771C1336.08 532.158 1334.67 532.351 1333.2 532.351ZM1344.34 515.067C1344.22 513.443 1343.84 511.974 1343.18 510.659C1342.56 509.306 1341.75 508.146 1340.74 507.179C1339.78 506.212 1338.63 505.458 1337.32 504.917C1336.04 504.376 1334.67 504.105 1333.2 504.105C1331.73 504.105 1330.34 504.376 1329.03 504.917C1327.71 505.458 1326.55 506.212 1325.55 507.179C1324.58 508.146 1323.79 509.306 1323.17 510.659C1322.59 512.012 1322.24 513.482 1322.12 515.067H1344.34ZM1352.22 516.575C1352.22 514.448 1352.59 512.438 1353.32 510.543C1354.06 508.648 1355.08 507.005 1356.4 505.613C1357.75 504.182 1359.35 503.061 1361.21 502.249C1363.07 501.437 1365.12 501.031 1367.36 501.031C1370.22 501.031 1372.71 501.688 1374.84 503.003C1376.97 504.279 1378.57 506.019 1379.65 508.223L1375.83 509.441C1374.98 507.894 1373.78 506.696 1372.23 505.845C1370.72 504.956 1369.04 504.511 1367.18 504.511C1365.64 504.511 1364.19 504.82 1362.83 505.439C1361.52 506.058 1360.36 506.908 1359.35 507.991C1358.39 509.035 1357.61 510.292 1357.03 511.761C1356.49 513.23 1356.22 514.835 1356.22 516.575C1356.22 518.276 1356.51 519.881 1357.09 521.389C1357.67 522.897 1358.47 524.212 1359.47 525.333C1360.48 526.416 1361.64 527.286 1362.95 527.943C1364.3 528.562 1365.73 528.871 1367.24 528.871C1368.21 528.871 1369.16 528.736 1370.08 528.465C1371.05 528.194 1371.94 527.827 1372.75 527.363C1373.56 526.86 1374.26 526.3 1374.84 525.681C1375.42 525.062 1375.83 524.405 1376.06 523.709L1379.94 524.869C1379.52 525.952 1378.9 526.957 1378.09 527.885C1377.28 528.774 1376.31 529.567 1375.19 530.263C1374.11 530.92 1372.89 531.423 1371.53 531.771C1370.22 532.158 1368.85 532.351 1367.42 532.351C1365.21 532.351 1363.18 531.945 1361.33 531.133C1359.47 530.282 1357.87 529.142 1356.51 527.711C1355.16 526.242 1354.1 524.56 1353.32 522.665C1352.59 520.77 1352.22 518.74 1352.22 516.575ZM1411.66 531.771H1407.72V514.893C1407.72 511.452 1407.12 508.88 1405.92 507.179C1404.76 505.478 1403.04 504.627 1400.76 504.627C1399.64 504.627 1398.51 504.859 1397.39 505.323C1396.31 505.748 1395.29 506.348 1394.32 507.121C1393.35 507.894 1392.5 508.803 1391.77 509.847C1391.07 510.891 1390.55 512.032 1390.2 513.269V531.771H1386.26V489.431H1390.2V508.397C1391.4 506.116 1393.06 504.318 1395.19 503.003C1397.32 501.688 1399.62 501.031 1402.09 501.031C1403.83 501.031 1405.3 501.36 1406.5 502.017C1407.7 502.636 1408.68 503.525 1409.46 504.685C1410.23 505.806 1410.79 507.179 1411.14 508.803C1411.49 510.388 1411.66 512.148 1411.66 514.081V531.771ZM1445.59 531.771H1441.65V514.893C1441.65 511.297 1441.11 508.687 1440.02 507.063C1438.98 505.439 1437.36 504.627 1435.15 504.627C1433.99 504.627 1432.83 504.84 1431.67 505.265C1430.51 505.69 1429.43 506.29 1428.42 507.063C1427.46 507.836 1426.59 508.764 1425.81 509.847C1425.04 510.891 1424.48 512.032 1424.13 513.269V531.771H1420.19V501.553H1423.78V508.397C1425.02 506.193 1426.78 504.414 1429.06 503.061C1431.38 501.708 1433.89 501.031 1436.6 501.031C1438.26 501.031 1439.68 501.34 1440.84 501.959C1442 502.578 1442.92 503.448 1443.62 504.569C1444.32 505.69 1444.82 507.063 1445.13 508.687C1445.44 510.311 1445.59 512.109 1445.59 514.081V531.771ZM1466.99 532.351C1464.79 532.351 1462.78 531.945 1460.96 531.133C1459.14 530.282 1457.56 529.142 1456.21 527.711C1454.89 526.28 1453.87 524.618 1453.13 522.723C1452.4 520.828 1452.03 518.837 1452.03 516.749C1452.03 514.622 1452.4 512.612 1453.13 510.717C1453.91 508.822 1454.95 507.16 1456.26 505.729C1457.62 504.298 1459.2 503.158 1461.02 502.307C1462.84 501.456 1464.83 501.031 1466.99 501.031C1469.16 501.031 1471.15 501.456 1472.97 502.307C1474.82 503.158 1476.41 504.298 1477.72 505.729C1479.08 507.16 1480.12 508.822 1480.86 510.717C1481.63 512.612 1482.02 514.622 1482.02 516.749C1482.02 518.837 1481.65 520.828 1480.91 522.723C1480.18 524.618 1479.14 526.28 1477.78 527.711C1476.47 529.142 1474.88 530.282 1473.03 531.133C1471.21 531.945 1469.2 532.351 1466.99 532.351ZM1456.03 516.807C1456.03 518.508 1456.32 520.094 1456.9 521.563C1457.48 522.994 1458.26 524.27 1459.22 525.391C1460.23 526.474 1461.39 527.324 1462.7 527.943C1464.06 528.562 1465.49 528.871 1466.99 528.871C1468.5 528.871 1469.91 528.562 1471.23 527.943C1472.58 527.286 1473.76 526.416 1474.77 525.333C1475.77 524.212 1476.56 522.916 1477.14 521.447C1477.72 519.978 1478.01 518.392 1478.01 516.691C1478.01 515.028 1477.72 513.462 1477.14 511.993C1476.56 510.485 1475.77 509.19 1474.77 508.107C1473.76 506.986 1472.58 506.116 1471.23 505.497C1469.91 504.84 1468.5 504.511 1466.99 504.511C1465.49 504.511 1464.07 504.84 1462.76 505.497C1461.45 506.116 1460.29 506.986 1459.28 508.107C1458.27 509.228 1457.48 510.543 1456.9 512.051C1456.32 513.52 1456.03 515.106 1456.03 516.807ZM1488.9 489.431H1492.85V524.927C1492.85 526.048 1493.16 526.938 1493.77 527.595C1494.39 528.214 1495.26 528.523 1496.38 528.523C1496.81 528.523 1497.31 528.465 1497.89 528.349C1498.47 528.233 1499.01 528.078 1499.52 527.885L1500.21 531.075C1499.48 531.384 1498.57 531.636 1497.49 531.829C1496.44 532.022 1495.53 532.119 1494.76 532.119C1492.94 532.119 1491.51 531.616 1490.47 530.611C1489.42 529.567 1488.9 528.117 1488.9 526.261V489.431ZM1517.52 532.351C1515.32 532.351 1513.31 531.945 1511.49 531.133C1509.67 530.282 1508.09 529.142 1506.73 527.711C1505.42 526.28 1504.4 524.618 1503.66 522.723C1502.93 520.828 1502.56 518.837 1502.56 516.749C1502.56 514.622 1502.93 512.612 1503.66 510.717C1504.43 508.822 1505.48 507.16 1506.79 505.729C1508.15 504.298 1509.73 503.158 1511.55 502.307C1513.37 501.456 1515.36 501.031 1517.52 501.031C1519.69 501.031 1521.68 501.456 1523.5 502.307C1525.35 503.158 1526.94 504.298 1528.25 505.729C1529.61 507.16 1530.65 508.822 1531.38 510.717C1532.16 512.612 1532.54 514.622 1532.54 516.749C1532.54 518.837 1532.18 520.828 1531.44 522.723C1530.71 524.618 1529.66 526.28 1528.31 527.711C1527 529.142 1525.41 530.282 1523.55 531.133C1521.74 531.945 1519.73 532.351 1517.52 532.351ZM1506.56 516.807C1506.56 518.508 1506.85 520.094 1507.43 521.563C1508.01 522.994 1508.78 524.27 1509.75 525.391C1510.76 526.474 1511.92 527.324 1513.23 527.943C1514.58 528.562 1516.01 528.871 1517.52 528.871C1519.03 528.871 1520.44 528.562 1521.76 527.943C1523.11 527.286 1524.29 526.416 1525.29 525.333C1526.3 524.212 1527.09 522.916 1527.67 521.447C1528.25 519.978 1528.54 518.392 1528.54 516.691C1528.54 515.028 1528.25 513.462 1527.67 511.993C1527.09 510.485 1526.3 509.19 1525.29 508.107C1524.29 506.986 1523.11 506.116 1521.76 505.497C1520.44 504.84 1519.03 504.511 1517.52 504.511C1516.01 504.511 1514.6 504.84 1513.29 505.497C1511.97 506.116 1510.81 506.986 1509.81 508.107C1508.8 509.228 1508.01 510.543 1507.43 512.051C1506.85 513.52 1506.56 515.106 1506.56 516.807ZM1551.38 532.177C1549.29 532.177 1547.38 531.752 1545.64 530.901C1543.94 530.012 1542.45 528.852 1541.17 527.421C1539.93 525.99 1538.97 524.347 1538.27 522.491C1537.57 520.635 1537.23 518.721 1537.23 516.749C1537.23 514.661 1537.56 512.67 1538.21 510.775C1538.91 508.842 1539.88 507.16 1541.11 505.729C1542.35 504.298 1543.82 503.158 1545.52 502.307C1547.26 501.456 1549.17 501.031 1551.26 501.031C1553.85 501.031 1556.1 501.688 1557.99 503.003C1559.89 504.279 1561.51 505.903 1562.86 507.875V501.553H1566.4V531.887C1566.4 533.975 1565.99 535.812 1565.18 537.397C1564.41 539.021 1563.35 540.374 1561.99 541.457C1560.68 542.54 1559.11 543.352 1557.29 543.893C1555.52 544.434 1553.62 544.705 1551.61 544.705C1548.13 544.705 1545.33 544.086 1543.2 542.849C1541.07 541.612 1539.35 539.949 1538.04 537.861L1540.47 535.947C1541.67 537.88 1543.26 539.292 1545.23 540.181C1547.2 541.109 1549.33 541.573 1551.61 541.573C1553.08 541.573 1554.47 541.36 1555.79 540.935C1557.1 540.548 1558.24 539.949 1559.21 539.137C1560.21 538.364 1561.01 537.358 1561.59 536.121C1562.17 534.922 1562.46 533.511 1562.46 531.887V525.913C1561.3 527.846 1559.71 529.374 1557.7 530.495C1555.69 531.616 1553.58 532.177 1551.38 532.177ZM1552.48 528.871C1553.64 528.871 1554.78 528.658 1555.9 528.233C1557.02 527.808 1558.03 527.247 1558.92 526.551C1559.85 525.816 1560.62 525.004 1561.24 524.115C1561.86 523.226 1562.26 522.317 1562.46 521.389V512.051C1562.03 510.968 1561.45 509.963 1560.72 509.035C1559.98 508.107 1559.15 507.314 1558.22 506.657C1557.29 506 1556.29 505.478 1555.21 505.091C1554.16 504.704 1553.1 504.511 1552.02 504.511C1550.32 504.511 1548.79 504.878 1547.43 505.613C1546.12 506.309 1545 507.237 1544.07 508.397C1543.14 509.557 1542.43 510.872 1541.92 512.341C1541.46 513.81 1541.23 515.299 1541.23 516.807C1541.23 518.431 1541.52 519.978 1542.1 521.447C1542.68 522.916 1543.47 524.212 1544.48 525.333C1545.52 526.416 1546.72 527.286 1548.07 527.943C1549.43 528.562 1550.9 528.871 1552.48 528.871ZM1575.23 531.771V501.553H1579.17V531.771H1575.23ZM1575.23 495.231V489.431H1579.17V495.231H1575.23ZM1601.02 532.351C1598.82 532.351 1596.79 531.945 1594.93 531.133C1593.12 530.282 1591.53 529.142 1590.18 527.711C1588.82 526.242 1587.76 524.56 1586.99 522.665C1586.25 520.77 1585.89 518.74 1585.89 516.575C1585.89 514.448 1586.25 512.457 1586.99 510.601C1587.76 508.706 1588.8 507.063 1590.12 505.671C1591.47 504.24 1593.08 503.119 1594.93 502.307C1596.79 501.456 1598.8 501.031 1600.97 501.031C1603.17 501.031 1605.18 501.456 1607 502.307C1608.85 503.119 1610.44 504.24 1611.75 505.671C1613.07 507.102 1614.09 508.745 1614.83 510.601C1615.56 512.457 1615.93 514.429 1615.93 516.517C1615.93 516.826 1615.93 517.136 1615.93 517.445C1615.93 517.754 1615.91 517.967 1615.87 518.083H1590C1590.12 519.707 1590.49 521.215 1591.11 522.607C1591.76 523.96 1592.59 525.14 1593.6 526.145C1594.6 527.15 1595.75 527.943 1597.02 528.523C1598.34 529.064 1599.73 529.335 1601.2 529.335C1602.16 529.335 1603.13 529.2 1604.1 528.929C1605.06 528.658 1605.95 528.291 1606.77 527.827C1607.58 527.363 1608.31 526.802 1608.97 526.145C1609.63 525.449 1610.13 524.695 1610.48 523.883L1613.9 524.811C1613.44 525.932 1612.78 526.957 1611.93 527.885C1611.08 528.774 1610.09 529.567 1608.97 530.263C1607.85 530.92 1606.61 531.423 1605.26 531.771C1603.9 532.158 1602.49 532.351 1601.02 532.351ZM1612.16 515.067C1612.04 513.443 1611.66 511.974 1611 510.659C1610.38 509.306 1609.57 508.146 1608.56 507.179C1607.6 506.212 1606.46 505.458 1605.14 504.917C1603.87 504.376 1602.49 504.105 1601.02 504.105C1599.55 504.105 1598.16 504.376 1596.85 504.917C1595.53 505.458 1594.37 506.212 1593.37 507.179C1592.4 508.146 1591.61 509.306 1590.99 510.659C1590.41 512.012 1590.06 513.482 1589.95 515.067H1612.16ZM1632.16 532.351C1629.81 532.351 1627.5 531.964 1625.26 531.191C1623.02 530.418 1621.09 529.296 1619.46 527.827L1621.26 525.159C1622.96 526.551 1624.68 527.595 1626.42 528.291C1628.2 528.987 1630.1 529.335 1632.11 529.335C1634.54 529.335 1636.48 528.852 1637.91 527.885C1639.38 526.88 1640.11 525.468 1640.11 523.651C1640.11 522.8 1639.92 522.104 1639.53 521.563C1639.14 520.983 1638.56 520.48 1637.79 520.055C1637.06 519.63 1636.11 519.262 1634.95 518.953C1633.83 518.605 1632.51 518.257 1631 517.909C1629.26 517.484 1627.76 517.058 1626.48 516.633C1625.2 516.208 1624.14 515.724 1623.29 515.183C1622.48 514.642 1621.86 513.984 1621.43 513.211C1621.05 512.399 1620.85 511.394 1620.85 510.195C1620.85 508.687 1621.14 507.353 1621.72 506.193C1622.34 505.033 1623.15 504.086 1624.16 503.351C1625.2 502.578 1626.4 501.998 1627.76 501.611C1629.15 501.224 1630.62 501.031 1632.16 501.031C1634.48 501.031 1636.59 501.418 1638.49 502.191C1640.38 502.926 1641.91 503.912 1643.07 505.149L1641.15 507.469C1640.03 506.309 1638.66 505.439 1637.04 504.859C1635.45 504.279 1633.79 503.989 1632.05 503.989C1631 503.989 1630.04 504.105 1629.15 504.337C1628.26 504.53 1627.47 504.859 1626.77 505.323C1626.11 505.787 1625.59 506.386 1625.2 507.121C1624.82 507.817 1624.62 508.648 1624.62 509.615C1624.62 510.427 1624.76 511.084 1625.03 511.587C1625.3 512.09 1625.75 512.534 1626.36 512.921C1626.98 513.269 1627.76 513.598 1628.68 513.907C1629.65 514.178 1630.81 514.468 1632.16 514.777C1634.1 515.241 1635.8 515.705 1637.27 516.169C1638.74 516.633 1639.96 517.174 1640.92 517.793C1641.93 518.412 1642.68 519.166 1643.18 520.055C1643.69 520.944 1643.94 522.027 1643.94 523.303C1643.94 526.087 1642.87 528.291 1640.75 529.915C1638.62 531.539 1635.76 532.351 1632.16 532.351Z" fill="white"/>
<rect x="432" y="136" width="58" height="58" fill="white"/>
<rect x="432" y="284" width="58" height="58" fill="white"/>
<path d="M615 27H698L608 450H525L615 27Z" fill="white"/>
<path d="M763 27H846L756 450H673L763 27Z" fill="#FF0000"/>
</g>
<defs>
<clipPath id="clip0">
<rect width="1649" height="565" fill="white"/>
</clipPath>
</defs>
</svg>
